<?xml version="1.0" standalone="no"?>
<!DOCTYPE svg PUBLIC "-//W3C//DTD SVG 20010904//EN"
 "http://www.w3.org/TR/2001/REC-SVG-20010904/DTD/svg10.dtd">
<svg version="1.0" xmlns="http://www.w3.org/2000/svg"
 width="512.000000pt" height="512.000000pt" viewBox="0 0 512.000000 512.000000"
 preserveAspectRatio="xMidYMid meet">
<metadata>
Created by potrace 1.16, written by Peter Selinger 2001-2019
</metadata>
<g transform="translate(0.000000,512.000000) scale(0.100000,-0.100000)"
fill="#000000" stroke="none">
<path d="M2375 4845 c-289 -41 -571 -139 -832 -291 -189 -110 -226 -145 -165
-157 42 -9 127 -90 156 -150 47 -97 55 -239 20 -326 -8 -19 -38 -64 -67 -100
-174 -216 -266 -391 -339 -640 -38 -131 -49 -151 -88 -151 -18 0 -33 -7 -39
-18 -16 -31 -71 -258 -71 -296 0 -46 51 -89 144 -119 51 -16 70 -28 77 -45 14
-38 11 -42 -31 -42 -65 0 -79 -23 -133 -210 -57 -201 -58 -220 -14 -256 33
-26 33 -26 25 -87 -5 -34 -12 -272 -17 -529 l-8 -466 -32 -40 c-59 -75 -86
-148 -86 -234 0 -71 2 -79 29 -107 24 -25 38 -31 71 -31 138 0 539 214 784
419 40 33 112 80 159 103 48 23 90 44 95 46 4 2 23 -30 42 -71 28 -60 35 -88
35 -137 0 -71 -35 -187 -81 -267 -17 -29 -28 -53 -24 -53 11 0 70 33 102 58
40 30 72 80 93 146 l17 50 24 -35 c46 -66 257 -334 277 -353 12 -10 41 -21 66
-23 60 -7 97 11 400 196 403 246 388 241 691 241 237 0 353 11 473 46 143 42
227 93 250 154 14 38 -2 67 -60 103 -602 371 -596 367 -661 432 -59 59 -107
142 -107 185 0 24 5 27 62 39 94 19 158 56 158 92 0 9 -21 41 -46 71 -67 77
-84 118 -84 212 0 96 15 153 44 162 12 3 31 16 44 27 24 23 25 43 2 142 -5 22
-11 114 -14 204 l-4 164 88 -5 c174 -10 282 -86 500 -353 108 -131 104 -128
128 -121 39 13 95 216 60 216 -8 0 -41 30 -74 68 -60 69 -56 68 33 -6 28 -24
54 -39 57 -34 3 5 8 36 11 68 4 33 8 69 11 81 3 16 -14 41 -67 97 -39 42 -67
76 -62 76 5 0 37 -22 71 -50 l62 -50 0 93 c0 152 -1 155 -85 212 -40 28 -72
51 -70 53 7 8 85 -20 109 -39 15 -12 29 -20 31 -17 2 2 -5 53 -15 113 -64 373
-233 697 -510 976 -293 295 -630 482 -994 550 -146 27 -474 35 -621 14z m265
-40 c0 -12 -18 -15 -103 -15 -89 0 -320 -22 -359 -34 -7 -2 -25 -7 -40 -10
-21 -5 -28 -12 -28 -29 0 -22 -4 -23 -75 -24 -64 -1 -92 -8 -191 -48 -63 -26
-117 -45 -120 -42 -13 13 286 125 434 162 192 48 482 73 482 40z m195 5 c87
-12 155 -30 155 -41 0 -17 -21 -19 -80 -5 -59 14 -61 14 -55 -5 8 -23 3 -24
-37 -3 -17 9 -58 21 -91 28 -134 27 -49 48 108 26z m293 -79 c3 -9 -4 -9 -26
3 -43 22 -51 40 -11 23 18 -7 35 -19 37 -26z m137 -21 c85 -34 260 -121 290
-144 17 -13 18 -17 5 -25 -11 -7 -26 -3 -55 14 -23 13 -97 54 -166 91 -186
100 -204 116 -74 64z m-619 -65 c-12 -44 -40 -149 -62 -232 l-39 -153 -78 0
-79 0 7 43 c12 66 34 146 54 191 l18 41 7 -70 c9 -92 15 -112 27 -94 5 8 9 22
9 32 0 32 51 148 103 239 28 48 52 86 53 85 2 -1 -7 -38 -20 -82z m-516 -105
c13 -114 25 -152 34 -110 3 14 11 50 17 80 l13 55 12 -65 c7 -36 15 -108 19
-161 l7 -95 -59 -13 c-32 -8 -64 -16 -72 -19 -12 -5 -13 26 -7 204 6 184 16
289 22 244 1 -8 8 -62 14 -120z m210 -120 c-7 -85 -14 -158 -17 -162 -2 -5
-13 -8 -24 -8 -15 0 -19 7 -19 38 0 53 17 161 43 282 21 102 22 103 25 55 2
-27 -2 -120 -8 -205z m489 184 c-7 -16 -36 -103 -65 -194 -50 -158 -67 -190
-80 -156 -12 30 135 400 152 383 2 -2 -1 -17 -7 -33z m-1119 -19 c0 -2 -39
-24 -88 -49 -48 -25 -103 -59 -122 -75 -31 -26 -33 -30 -20 -47 10 -12 5 -10
-17 6 -18 13 -32 25 -30 26 1 1 58 34 126 73 111 63 151 81 151 66z m1264
-189 c-51 -103 -95 -190 -97 -193 -3 -2 -23 1 -45 8 l-41 12 19 46 c10 25 30
71 44 101 l26 55 0 -65 0 -64 43 85 c35 71 135 215 142 207 2 -2 -39 -88 -91
-192z m790 24 c91 -72 216 -189 216 -202 0 -15 -40 12 -124 84 -85 73 -210
164 -263 191 l-31 16 -96 -99 c-52 -55 -117 -132 -144 -172 -70 -105 -69 -102
-44 -96 12 4 22 4 22 2 0 -2 -20 -31 -44 -63 l-43 -60 -34 23 c-19 12 -67 40
-106 61 -40 22 -69 41 -64 45 4 3 46 87 92 188 l83 182 19 -82 c21 -87 21 -86
-29 -268 -4 -17 33 16 113 100 112 117 262 247 301 261 19 7 62 -20 176 -111z
m-1705 -202 c1 -11 -15 -21 -46 -32 -25 -9 -48 -15 -49 -13 -2 2 -10 50 -18
108 -29 206 -26 255 9 146 25 -74 32 -76 40 -11 4 31 10 64 13 73 5 13 49
-217 51 -271z m-211 -8 l31 -75 -32 -17 c-18 -9 -37 -17 -42 -18 -10 0 -66
192 -64 222 0 7 9 -7 19 -32 23 -56 25 -33 5 80 -21 118 -18 119 20 10 18 -52
47 -129 63 -170z m-227 78 c61 -99 74 -118 83 -118 5 0 6 14 3 30 -10 48 2 35
38 -42 l33 -72 -56 -33 c-62 -35 -70 -32 -71 28 -1 24 -49 199 -66 242 -14 33
3 16 36 -35z m1978 -25 c-7 -10 -32 -40 -54 -68 l-40 -50 45 35 c33 25 40 28
24 9 -11 -13 -48 -56 -82 -96 -90 -107 -107 -146 -42 -98 44 32 49 25 14 -20
-24 -31 -25 -38 -13 -50 13 -13 22 -11 74 14 33 15 126 69 206 118 162 101
238 143 256 143 6 0 41 -37 76 -82 136 -177 161 -233 40 -93 -33 39 -77 85
-96 104 l-36 34 -98 -63 c-54 -35 -138 -91 -188 -125 -49 -34 -98 -64 -107
-68 -21 -7 -24 3 -6 21 25 25 -6 11 -59 -28 -31 -22 -60 -40 -64 -40 -4 0 -33
21 -66 47 -32 26 -60 48 -61 49 -4 3 149 182 232 271 47 51 72 71 45 36z
m-1691 -45 c6 -29 7 -57 2 -61 -4 -5 -11 5 -14 22 -3 17 -9 45 -12 61 -3 17
-1 30 4 30 5 0 14 -24 20 -52z m828 -17 c101 -21 265 -83 362 -137 34 -19 62
-37 62 -39 0 -3 -35 13 -77 34 -143 70 -248 104 -359 115 -50 5 -43 2 51 -22
195 -51 344 -117 485 -212 69 -47 152 -120 148 -130 -2 -4 -32 -28 -68 -52
l-64 -44 -92 67 c-163 118 -334 194 -508 225 -108 20 -338 20 -446 0 -153 -28
-299 -85 -419 -164 l-53 -35 -18 24 c-10 13 -33 48 -51 77 l-33 54 25 19 c35
27 223 122 299 152 86 34 247 76 335 87 101 13 315 3 421 -19z m260 0 c8 -4 9
-14 3 -28 -7 -20 -11 -21 -39 -12 -31 11 -34 17 -24 43 6 16 29 15 60 -3z
m347 -104 c-78 -109 -81 -112 -92 -102 -7 7 11 33 55 83 36 39 68 72 70 72 3
0 -12 -24 -33 -53z m-716 -148 c43 -6 82 -15 88 -20 6 -6 -12 -7 -50 -2 -113
15 -393 9 -485 -11 -97 -21 -244 -73 -342 -122 -38 -19 -68 -32 -68 -29 0 3
46 28 101 56 148 74 256 106 439 133 57 8 244 5 317 -5z m748 -55 c94 -77 101
-84 92 -84 -3 0 -44 30 -89 67 -105 84 -104 83 -92 83 5 0 46 -30 89 -66z
m-1731 -33 c6 -64 6 -64 -43 -140 -110 -173 -190 -363 -243 -581 -16 -69 -34
-130 -39 -136 -8 -10 -103 -34 -136 -34 -17 0 -17 24 1 63 7 18 21 71 30 119
46 247 151 460 326 663 33 39 65 85 72 103 15 41 23 26 32 -57z m909 38 c202
-17 344 -65 502 -167 132 -86 263 -199 339 -293 77 -96 165 -265 196 -379 36
-134 63 -395 42 -426 -4 -6 -17 -14 -29 -18 -19 -6 -23 -2 -29 21 -4 15 -16
46 -27 68 l-19 40 29 -27 c51 -49 57 -41 49 75 -17 276 -109 509 -260 662 -38
39 -60 59 -49 45 70 -88 142 -233 162 -330 6 -25 19 -76 31 -115 22 -74 54
-281 45 -295 -3 -5 -26 14 -52 41 -25 27 -44 51 -41 54 2 3 24 -12 47 -32 l43
-36 -20 39 c-11 21 -23 59 -27 83 -10 63 -49 172 -82 233 -30 55 -108 136
-164 171 -33 21 -32 20 12 -30 81 -91 158 -267 172 -389 l5 -42 -57 27 c-48
22 -69 26 -151 26 -80 0 -102 -4 -139 -23 -52 -28 -119 -94 -113 -112 3 -8 0
-10 -7 -6 -7 5 -19 -11 -32 -41 -25 -58 -45 -82 -83 -98 -31 -13 -45 -43 -137
-297 -57 -156 -64 -218 -45 -375 6 -53 5 -80 -4 -103 -9 -21 -64 -73 -161
-151 -81 -66 -168 -142 -193 -170 -57 -63 -95 -141 -105 -213 -4 -31 -11 -59
-14 -63 -12 -12 -7 82 7 137 19 74 11 77 -10 4 -43 -145 -10 -316 90 -468 67
-102 251 -333 276 -346 31 -16 88 -11 133 11 23 12 150 87 282 167 368 222
597 326 850 388 125 30 301 49 335 36 21 -8 13 -11 -50 -17 -371 -36 -654
-146 -1130 -440 -336 -207 -365 -221 -424 -194 -36 17 -277 321 -351 444 -103
171 -102 355 3 508 31 44 32 48 18 74 -21 41 -53 72 -82 79 -25 6 -99 -5 -139
-22 -16 -6 -18 -5 -9 7 16 20 46 118 95 304 22 88 45 165 51 172 5 6 64 42
131 79 242 134 364 215 353 233 -3 4 11 23 31 42 19 19 46 58 59 87 34 74 30
77 -9 7 -50 -91 -118 -132 -320 -195 -615 -193 -693 -228 -775 -357 -40 -63
-57 -120 -97 -315 -19 -90 -34 -154 -34 -143 -1 26 42 393 65 556 l18 126 123
28 c68 16 121 30 119 32 -3 3 -59 -6 -125 -19 -84 -16 -123 -28 -126 -38 -15
-49 -68 -480 -119 -975 -36 -345 -39 -385 -32 -385 17 0 244 152 321 215 53
43 70 94 140 420 31 143 79 348 108 456 l51 197 111 42 c165 64 374 156 429
191 27 16 51 28 53 25 14 -14 -266 -158 -494 -256 -33 -14 -53 -29 -57 -43
-37 -131 -125 -496 -161 -667 -73 -348 -72 -346 -240 -471 -189 -140 -376
-251 -525 -312 -121 -50 -144 -53 -171 -26 -39 39 -19 115 66 259 l33 55 6
405 c6 378 16 612 32 721 l6 45 -40 12 c-23 7 -43 16 -45 20 -5 8 68 264 83
292 5 10 23 20 40 22 36 5 37 3 5 -25 -17 -15 -36 -59 -64 -145 l-39 -122 21
-15 c12 -8 27 -15 34 -15 6 0 18 -6 25 -14 12 -11 12 -35 2 -147 -11 -123 -24
-396 -41 -864 -5 -147 -9 -185 -23 -205 -53 -76 -78 -172 -56 -208 17 -28 114
-4 242 61 l71 36 12 76 c6 41 22 187 36 323 42 404 84 747 111 912 14 85 26
156 27 156 1 1 54 7 117 13 341 36 789 142 945 224 58 31 145 106 145 126 0
14 -168 116 -257 157 -96 43 -234 87 -359 114 -216 47 -587 36 -854 -24 -58
-13 -106 -23 -107 -22 -3 3 23 75 30 82 14 14 158 33 330 44 299 19 581 -14
834 -98 l113 -38 -27 28 c-36 38 -78 55 -210 89 -186 47 -321 61 -575 61
l-227 0 5 31 c31 186 78 346 136 462 36 71 148 235 160 235 11 0 8 -4 -48 -85
-74 -107 -71 -112 18 -34 202 176 418 257 743 278 11 0 73 -4 138 -10z m1665
-1 c23 -23 11 -28 -65 -27 l-78 0 55 19 c68 22 73 23 88 8z m-591 -46 c-59
-60 -48 -76 33 -47 24 8 44 14 46 12 2 -1 -17 -16 -41 -32 -25 -17 -45 -36
-45 -42 0 -17 8 -16 59 2 l41 14 -22 -29 c-28 -39 -18 -46 34 -25 66 27 191
65 213 65 11 -1 -11 -13 -50 -29 -163 -66 -169 -78 -20 -41 117 29 123 24 15
-14 -148 -52 -160 -57 -155 -66 2 -4 17 -5 32 -3 l28 5 -35 -32 c-20 -18 -27
-29 -17 -26 61 19 181 46 191 43 6 -2 -20 -14 -59 -27 -111 -36 -105 -43 35
-37 l125 5 -107 -19 c-116 -20 -220 -51 -314 -95 -32 -15 -62 -28 -65 -28 -4
-1 -33 33 -64 74 -32 41 -73 92 -93 112 -35 37 -36 38 -16 60 10 13 48 51 84
86 60 58 64 64 47 76 -16 13 -16 15 9 31 25 16 100 41 134 44 8 0 -3 -16 -23
-37z m650 -70 c12 -31 12 -32 -4 -23 -10 5 -34 21 -53 36 l-35 26 39 -3 c34
-3 42 -8 53 -36z m-848 -15 c-2 -2 -28 -25 -56 -52 -36 -32 -53 -42 -53 -31 0
15 85 85 104 86 5 0 7 -1 5 -3z m933 -193 c9 -3 21 -18 27 -35 l10 -30 -32 19
c-18 11 -48 30 -67 42 l-35 22 40 -7 c22 -3 47 -8 57 -11z m-272 -98 c0 -2
-36 -9 -80 -15 -88 -13 -185 -39 -177 -48 3 -3 59 -5 124 -5 65 1 138 -2 163
-6 36 -6 18 -9 -90 -14 -74 -4 -148 -11 -165 -17 -22 -7 -24 -10 -10 -10 54
-3 210 -22 233 -28 17 -5 -20 -10 -102 -13 -85 -3 -131 -9 -133 -17 -2 -6 10
-14 27 -18 24 -5 50 -30 50 -47 0 -2 -66 -4 -148 -5 l-147 -2 -37 69 -37 69
32 20 c39 24 125 58 192 76 44 12 305 22 305 11z m-181 -283 c54 -5 62 -8 58
-25 -5 -16 1 -18 45 -18 30 0 47 -4 43 -10 -3 -5 -26 -10 -50 -10 -24 0 -46
-4 -49 -8 -8 -13 44 -39 94 -47 24 -4 60 -13 80 -21 33 -12 27 -13 -80 -14
-129 -2 -132 1 53 -51 42 -12 76 -24 74 -26 -2 -2 -49 3 -103 12 -186 28 -175
28 -119 3 59 -27 159 -83 130 -73 -133 44 -198 57 -281 59 l-91 1 -32 109
c-25 86 -29 111 -19 118 16 9 161 11 247 1z m-2834 -264 c-8 -23 -15 -50 -15
-60 0 -10 -9 -23 -20 -29 -24 -13 -24 -15 -4 65 13 50 21 65 35 65 17 0 17 -3
4 -41z m930 -54 c180 -32 473 -133 458 -158 -67 -118 -235 -211 -460 -256
-151 -31 -253 -35 -365 -17 -99 16 -224 21 -265 10 -24 -6 -43 -50 -128 -289
l-43 -120 -8 -270 c-10 -320 -22 -281 -23 75 l-1 235 50 147 c70 205 93 256
125 268 39 15 160 12 282 -6 124 -19 227 -14 362 15 169 37 313 104 381 176
24 26 24 27 6 40 -28 21 -260 93 -361 112 -110 21 -393 23 -535 4 -78 -10
-223 -39 -347 -68 -18 -4 -23 -1 -23 15 0 12 8 25 18 31 37 20 274 61 432 75
89 8 357 -3 445 -19z m1188 -16 c-32 -9 -46 -27 -20 -26 38 1 47 -4 47 -28 0
-21 -5 -25 -30 -25 -48 0 -96 -25 -156 -82 l-57 -53 5 58 c4 49 10 63 39 94
44 46 103 73 159 72 45 -1 45 -1 13 -10z m111 -20 c31 -11 58 -24 61 -28 5 -9
-110 31 -121 42 -12 11 2 8 60 -14z m48 -45 c33 -17 41 -18 32 -1 -4 7 -3 9 2
4 5 -5 9 -12 9 -15 0 -4 20 -27 43 -50 24 -24 58 -74 75 -110 27 -58 32 -79
33 -152 1 -113 0 -110 29 -110 20 0 25 -5 25 -24 0 -24 -2 -24 -32 -14 -18 6
-38 16 -44 22 -6 6 -17 51 -23 100 -12 97 -47 186 -96 244 -32 38 -93 72 -130
72 -22 0 -25 4 -25 34 l0 34 38 -10 c20 -6 49 -16 64 -24z m-2309 -34 c-4 -4
-19 -11 -31 -15 -20 -6 -23 -4 -20 11 2 10 14 24 28 31 21 11 26 10 28 -3 2
-9 0 -20 -5 -24z m2187 0 c0 -5 -10 -10 -22 -10 -73 0 -188 -106 -232 -214
-14 -37 -26 -73 -26 -81 0 -7 -5 -17 -11 -21 -8 -4 -9 4 -4 27 23 105 86 210
156 259 53 39 139 63 139 40z m-1143 -42 c49 -46 11 -138 -58 -138 -61 0 -91
89 -44 135 30 31 71 32 102 3z m1202 -58 c55 -27 127 -111 146 -171 25 -75 18
-208 -15 -272 -13 -27 -36 -57 -50 -67 -36 -26 -76 -35 -85 -19 -5 8 -4 10 3
5 7 -4 26 1 42 11 149 88 123 399 -36 429 -77 14 -179 -60 -206 -148 -11 -38
-11 -38 -65 -38 -53 0 -53 0 -47 28 29 134 86 219 166 252 39 15 107 11 147
-10z m-1987 -7 c30 -27 24 -81 -14 -120 -18 -18 -35 -33 -39 -33 -12 0 -31 58
-31 95 0 38 25 75 50 75 9 0 24 -7 34 -17z m2341 -108 c20 -8 38 -19 42 -25 9
-14 6 -13 -61 15 -33 14 -50 24 -38 25 12 0 38 -7 57 -15z m-326 -25 c73 -44
98 -178 48 -252 -57 -84 -168 -71 -215 26 -24 51 -25 94 -5 144 38 90 106 123
172 82z m365 -34 c4 -6 8 -21 8 -33 0 -25 -19 -29 -79 -17 -30 6 -31 9 -31 55
l0 48 48 -21 c26 -11 50 -26 54 -32z m-2113 -51 c-8 -7 -213 -34 -219 -29 -3
3 4 12 14 20 14 10 49 14 115 14 52 0 92 -2 90 -5z m1482 -76 c10 -5 18 -27
22 -58 15 -128 114 -231 222 -231 78 0 141 49 174 134 10 26 21 47 24 47 4 0
28 -3 53 -7 l45 -6 -3 -41 c-3 -44 -5 -45 -100 -61 -21 -4 -38 -13 -38 -20 0
-7 -16 -31 -35 -53 -92 -107 -263 -62 -344 91 -11 21 -25 72 -32 112 -12 74
-32 107 -23 37 19 -140 45 -196 120 -262 104 -91 239 -78 309 31 27 41 35 47
75 53 25 3 53 9 64 12 12 3 17 1 14 -8 -3 -8 -31 -18 -67 -24 -62 -10 -63 -11
-76 -50 -34 -97 -165 -140 -270 -87 -110 55 -189 180 -210 329 -6 47 -10 52
-36 58 -16 4 -29 11 -29 16 0 10 117 0 141 -12z m-191 -259 c21 -85 83 -162
193 -237 54 -38 55 -44 26 -146 -30 -102 -37 -296 -15 -401 34 -165 17 -218
-104 -311 -14 -11 -2 5 26 35 71 76 81 112 55 198 -48 159 -49 263 -6 449 14
57 22 110 18 118 -3 9 -44 42 -92 74 -140 95 -161 130 -164 270 -2 68 2 96 18
131 l20 45 7 -90 c4 -50 12 -110 18 -135z m706 194 c13 -3 24 -11 24 -16 0
-14 -52 0 -70 19 -13 14 -13 15 3 9 11 -3 30 -9 43 -12z m-226 -109 c-19 -19
-41 -35 -49 -35 -9 0 -3 8 14 18 17 11 36 26 44 35 7 10 16 17 19 17 3 0 -9
-16 -28 -35z m-546 -180 c22 -53 56 -87 143 -146 39 -27 74 -53 78 -59 3 -5
-3 -54 -15 -107 -34 -158 -37 -254 -10 -393 22 -115 22 -121 6 -164 -20 -52
-65 -95 -205 -195 -202 -144 -289 -186 -335 -161 -33 17 -129 147 -165 224
-55 113 -63 258 -21 354 20 45 36 59 20 16 -6 -14 -10 -42 -10 -62 l0 -37 34
63 c47 86 73 119 201 252 205 213 216 234 213 411 -1 103 2 132 18 169 l19 45
6 -85 c3 -47 14 -103 23 -125z m829 24 c15 -21 27 -43 27 -47 0 -9 -78 -35
-139 -47 -30 -7 -33 -5 -27 11 4 11 10 40 13 66 6 50 12 55 68 56 24 1 35 -7
58 -39z m-1770 -161 c-61 -347 -96 -523 -111 -571 -14 -43 -14 -49 1 -65 10
-10 17 -27 17 -36 0 -36 -42 -92 -103 -137 -95 -71 -218 -151 -223 -147 -13
14 92 668 132 818 31 119 60 169 132 226 91 72 96 73 58 2 -19 -35 -43 -92
-55 -128 -22 -67 -162 -673 -160 -694 0 -6 22 75 49 179 56 223 146 501 193
600 32 67 81 135 96 135 4 0 -8 -82 -26 -182z m1831 45 c-18 -13 -134 -41
-208 -50 -46 -6 -48 -5 -37 14 8 15 31 25 87 38 42 9 93 23 113 30 31 11 38
11 49 -3 11 -14 10 -19 -4 -29z m-396 -62 c21 -11 63 -27 94 -36 55 -16 57
-18 73 -66 24 -71 91 -157 184 -235 45 -37 81 -70 81 -73 0 -9 -186 -105 -273
-141 -43 -18 -77 -34 -75 -36 2 -1 42 11 88 27 90 32 292 89 313 89 6 -1 -53
-23 -133 -49 -80 -27 -183 -65 -228 -85 -101 -44 -130 -45 -164 -8 -33 35 -46
61 -75 147 -21 63 -23 65 -18 25 4 -25 22 -78 41 -118 28 -57 43 -77 69 -89
32 -15 37 -15 167 27 193 62 243 75 350 95 l96 17 112 -63 111 -64 -43 -7
c-194 -30 -264 -44 -350 -69 -228 -68 -436 -168 -749 -360 -231 -142 -288
-171 -335 -173 -32 -1 -41 4 -61 33 -13 19 -20 38 -16 41 5 4 31 15 58 25 81
29 163 73 275 148 191 127 251 191 266 284 l6 42 27 -28 c31 -34 100 -55 146
-47 17 4 105 28 196 55 90 27 190 54 222 61 31 7 57 17 57 23 0 15 -79 0 -260
-48 -91 -24 -186 -46 -211 -50 -95 -14 -145 33 -195 182 -24 71 -26 88 -21
188 4 70 14 143 30 200 13 50 27 102 31 117 4 19 14 28 34 31 15 2 31 5 35 6
4 0 25 -8 45 -18z m-2012 -878 c-8 -16 -19 -48 -25 -73 -18 -69 -31 -88 -73
-104 -44 -18 -88 -21 -88 -5 0 29 107 150 170 193 32 21 33 21 16 -11z m1654
13 c0 -2 -8 -10 -17 -17 -16 -13 -17 -12 -4 4 13 16 21 21 21 13z"/>
<path d="M1297 3378 c-32 -88 -67 -252 -67 -311 0 -44 12 -2 51 168 39 178 45
224 16 143z"/>
<path d="M2735 3825 c191 -73 307 -146 430 -269 79 -79 225 -277 225 -304 0
-5 7 -9 15 -9 8 0 15 2 15 3 0 17 -41 102 -75 154 -129 201 -324 353 -552 429
-129 44 -174 40 -58 -4z"/>
<path d="M2492 3744 c-78 -21 -99 -36 -37 -27 28 5 118 8 202 8 84 -1 150 1
148 3 -2 3 -30 11 -62 18 -74 17 -183 17 -251 -2z"/>
<path d="M1740 3553 c-23 -27 -55 -75 -71 -108 -16 -33 -21 -49 -12 -35 10 13
41 56 69 96 60 84 67 94 60 94 -2 0 -23 -21 -46 -47z"/>
<path d="M2721 3470 c118 -11 221 -41 347 -100 96 -44 103 -47 73 -21 -43 38
-140 85 -216 106 -33 8 -112 18 -175 20 -113 4 -113 4 -29 -5z"/>
<path d="M2603 3320 c-61 -11 -203 -62 -235 -84 -28 -20 -75 -20 -200 0 -55 9
-102 14 -104 11 -8 -8 212 -57 259 -57 31 0 80 13 140 36 208 80 327 84 474
13 69 -33 183 -150 221 -228 38 -77 46 -46 8 34 -94 201 -331 316 -563 275z"/>
<path d="M2540 3226 c-36 -12 -82 -30 -104 -39 -51 -22 -138 -21 -278 2 -179
31 -365 44 -486 35 l-107 -8 130 -8 c180 -10 284 -24 465 -59 194 -38 219 -36
364 35 61 29 118 56 126 59 8 3 2 6 -15 6 -16 0 -59 -10 -95 -23z"/>
<path d="M2685 3086 c-53 -23 -105 -103 -105 -161 0 -34 27 -92 58 -127 59
-65 130 -85 192 -53 40 20 38 26 -4 13 -47 -15 -100 -2 -141 33 -42 37 -59 85
-53 156 4 46 10 60 41 91 32 32 43 36 99 40 44 4 57 7 43 13 -31 12 -97 10
-130 -5z"/>
<path d="M2391 3044 c-27 -34 -26 -50 4 -79 29 -30 45 -31 79 -4 32 25 33 59
3 87 -31 29 -61 28 -86 -4z m55 -35 c10 -17 -13 -36 -27 -22 -12 12 -4 33 11
33 5 0 12 -5 16 -11z"/>
<path d="M2714 3050 c-11 -4 -33 -22 -47 -40 -21 -25 -27 -42 -27 -81 0 -79
44 -141 112 -160 123 -33 216 87 158 206 -34 70 -124 105 -196 75z m125 -86
c27 -35 26 -59 -3 -89 -39 -38 -96 -8 -96 51 0 63 61 86 99 38z"/>
<path d="M2830 2703 c0 -30 -21 -43 -69 -43 -34 0 -42 -3 -31 -10 43 -28 134
2 128 43 -4 26 -28 35 -28 10z"/>
<path d="M2570 2239 c-47 -56 -100 -114 -118 -131 -33 -28 -35 -29 -117 -22
-107 9 -116 0 -139 -122 -19 -102 -19 -107 -8 -100 5 3 14 31 21 63 20 88 40
130 64 137 12 3 56 6 97 6 74 0 75 0 117 42 l43 42 0 -85 c0 -47 5 -111 10
-142 14 -71 3 -94 -74 -160 -31 -27 -91 -80 -132 -118 l-75 -70 -30 58 c-49
93 -60 102 -119 90 -62 -12 -65 -32 -5 -33 59 -2 89 -23 122 -88 l28 -54 100
86 c55 48 129 115 164 149 l64 62 -7 63 c-3 35 -9 108 -13 163 l-6 100 56 83
c30 45 52 82 48 82 -3 0 -44 -46 -91 -101z"/>
<path d="M1818 2283 c7 -3 16 -2 19 1 4 3 -2 6 -13 5 -11 0 -14 -3 -6 -6z"/>
<path d="M3071 2574 c-27 -34 -63 -132 -59 -158 3 -13 10 1 22 39 10 33 28 79
41 103 27 48 26 54 -4 16z"/>
<path d="M2511 1379 c-153 -167 -181 -208 -181 -269 0 -87 123 -281 183 -288
29 -4 105 33 152 74 l30 26 -35 -22 c-81 -49 -120 -65 -138 -54 -40 25 -162
234 -162 279 0 30 58 115 167 246 120 143 116 139 110 139 -3 0 -60 -59 -126
-131z"/>
<path d="M1531 1104 c0 -11 3 -14 6 -6 3 7 2 16 -1 19 -3 4 -6 -2 -5 -13z"/>
</g>
</svg>